<mxfile host="Electron" agent="Mozilla/5.0 (Windows NT 10.0; Win64; x64) AppleWebKit/537.36 (KHTML, like Gecko) draw.io/28.1.2 Chrome/138.0.7204.243 Electron/37.4.0 Safari/537.36" version="28.1.2">
  <diagram name="Page-1" id="-tdZzBYBzlKKGFy7VIDe">
    <mxGraphModel dx="1880" dy="1714" grid="1" gridSize="10" guides="1" tooltips="1" connect="1" arrows="1" fold="1" page="1" pageScale="1" pageWidth="850" pageHeight="1100" math="0" shadow="0">
      <root>
        <mxCell id="0" />
        <mxCell id="1" parent="0" />
        <mxCell id="cucA3h1q2ShHjCGtQ66Y-2" value="" style="rounded=1;whiteSpace=wrap;html=1;strokeColor=#FFB570;" parent="1" vertex="1">
          <mxGeometry x="-310" y="-30" width="1220" height="580" as="geometry" />
        </mxCell>
        <mxCell id="lAf6Nf-l3kYEGOBf2khp-59" value="" style="rounded=1;whiteSpace=wrap;html=1;dashed=1;" parent="1" vertex="1">
          <mxGeometry x="430" y="50" width="400" height="450" as="geometry" />
        </mxCell>
        <mxCell id="lAf6Nf-l3kYEGOBf2khp-57" value="" style="rounded=1;whiteSpace=wrap;html=1;dashed=1;" parent="1" vertex="1">
          <mxGeometry x="-270" y="50" width="580" height="380" as="geometry" />
        </mxCell>
        <mxCell id="lAf6Nf-l3kYEGOBf2khp-1" value="&lt;font style=&quot;font-size: 22px;&quot;&gt;&lt;b style=&quot;&quot;&gt;&lt;font style=&quot;&quot;&gt;Integration Model&lt;/font&gt;&lt;/b&gt; (How tables are related)&lt;/font&gt;" style="text;html=1;align=center;verticalAlign=middle;whiteSpace=wrap;rounded=0;" parent="1" vertex="1">
          <mxGeometry x="130" y="-110" width="330" height="30" as="geometry" />
        </mxCell>
        <mxCell id="lAf6Nf-l3kYEGOBf2khp-27" style="edgeStyle=orthogonalEdgeStyle;rounded=0;orthogonalLoop=1;jettySize=auto;html=1;entryX=0;entryY=0.5;entryDx=0;entryDy=0;" parent="1" source="lAf6Nf-l3kYEGOBf2khp-25" target="lAf6Nf-l3kYEGOBf2khp-3" edge="1">
          <mxGeometry relative="1" as="geometry">
            <Array as="points">
              <mxPoint x="10" y="250" />
              <mxPoint x="10" y="200" />
              <mxPoint x="20" y="200" />
              <mxPoint x="20" y="165" />
            </Array>
          </mxGeometry>
        </mxCell>
        <mxCell id="lAf6Nf-l3kYEGOBf2khp-29" value="" style="group" parent="1" vertex="1" connectable="0">
          <mxGeometry x="20" y="280" width="240" height="82" as="geometry" />
        </mxCell>
        <mxCell id="lAf6Nf-l3kYEGOBf2khp-19" value="crm_prod_info" style="swimlane;fontStyle=0;childLayout=stackLayout;horizontal=1;startSize=30;horizontalStack=0;resizeParent=1;resizeParentMax=0;resizeLast=0;collapsible=1;marginBottom=0;whiteSpace=wrap;html=1;rounded=0;enumerate=0;fillColor=#dae8fc;strokeColor=#6c8ebf;" parent="lAf6Nf-l3kYEGOBf2khp-29" vertex="1">
          <mxGeometry x="40" y="22" width="170" height="60" as="geometry">
            <mxRectangle x="40" y="120" width="120" height="30" as="alternateBounds" />
          </mxGeometry>
        </mxCell>
        <mxCell id="lAf6Nf-l3kYEGOBf2khp-55" value="prd_key (PK)" style="text;strokeColor=none;fillColor=none;align=left;verticalAlign=middle;spacingLeft=4;spacingRight=4;overflow=hidden;points=[[0,0.5],[1,0.5]];portConstraint=eastwest;rotatable=0;whiteSpace=wrap;html=1;" parent="lAf6Nf-l3kYEGOBf2khp-19" vertex="1">
          <mxGeometry y="30" width="170" height="30" as="geometry" />
        </mxCell>
        <mxCell id="lAf6Nf-l3kYEGOBf2khp-21" value="Prododuct Information (History included)" style="text;html=1;align=center;verticalAlign=middle;resizable=0;points=[];autosize=1;strokeColor=none;fillColor=none;" parent="lAf6Nf-l3kYEGOBf2khp-29" vertex="1">
          <mxGeometry width="240" height="30" as="geometry" />
        </mxCell>
        <mxCell id="lAf6Nf-l3kYEGOBf2khp-31" value="" style="group" parent="1" vertex="1" connectable="0">
          <mxGeometry x="60" y="98" width="170" height="82" as="geometry" />
        </mxCell>
        <mxCell id="lAf6Nf-l3kYEGOBf2khp-2" value="crm_cust_info" style="swimlane;fontStyle=0;childLayout=stackLayout;horizontal=1;startSize=30;horizontalStack=0;resizeParent=1;resizeParentMax=0;resizeLast=0;collapsible=1;marginBottom=0;whiteSpace=wrap;html=1;rounded=0;enumerate=0;fillColor=#dae8fc;strokeColor=#6c8ebf;" parent="lAf6Nf-l3kYEGOBf2khp-31" vertex="1">
          <mxGeometry y="22" width="170" height="90" as="geometry">
            <mxRectangle x="40" y="120" width="120" height="30" as="alternateBounds" />
          </mxGeometry>
        </mxCell>
        <mxCell id="lAf6Nf-l3kYEGOBf2khp-3" value="cst_id - IN (PK?)&lt;div&gt;&lt;br&gt;&lt;/div&gt;" style="text;strokeColor=none;fillColor=none;align=left;verticalAlign=middle;spacingLeft=4;spacingRight=4;overflow=hidden;points=[[0,0.5],[1,0.5]];portConstraint=eastwest;rotatable=0;whiteSpace=wrap;html=1;" parent="lAf6Nf-l3kYEGOBf2khp-2" vertex="1">
          <mxGeometry y="30" width="170" height="30" as="geometry" />
        </mxCell>
        <mxCell id="lAf6Nf-l3kYEGOBf2khp-54" value="cst_key" style="text;strokeColor=none;fillColor=none;align=left;verticalAlign=middle;spacingLeft=4;spacingRight=4;overflow=hidden;points=[[0,0.5],[1,0.5]];portConstraint=eastwest;rotatable=0;whiteSpace=wrap;html=1;" parent="lAf6Nf-l3kYEGOBf2khp-2" vertex="1">
          <mxGeometry y="60" width="170" height="30" as="geometry" />
        </mxCell>
        <mxCell id="lAf6Nf-l3kYEGOBf2khp-17" value="Customer Information" style="text;html=1;align=center;verticalAlign=middle;resizable=0;points=[];autosize=1;strokeColor=none;fillColor=none;" parent="lAf6Nf-l3kYEGOBf2khp-31" vertex="1">
          <mxGeometry x="15" width="140" height="30" as="geometry" />
        </mxCell>
        <mxCell id="lAf6Nf-l3kYEGOBf2khp-32" value="" style="group" parent="1" vertex="1" connectable="0">
          <mxGeometry x="-210" y="140" width="170" height="156" as="geometry" />
        </mxCell>
        <mxCell id="lAf6Nf-l3kYEGOBf2khp-22" value="crm_sales_details" style="swimlane;fontStyle=0;childLayout=stackLayout;horizontal=1;startSize=30;horizontalStack=0;resizeParent=1;resizeParentMax=0;resizeLast=0;collapsible=1;marginBottom=0;whiteSpace=wrap;html=1;rounded=0;enumerate=0;fillColor=#dae8fc;strokeColor=#6c8ebf;" parent="lAf6Nf-l3kYEGOBf2khp-32" vertex="1">
          <mxGeometry y="36" width="170" height="120" as="geometry">
            <mxRectangle x="40" y="120" width="120" height="30" as="alternateBounds" />
          </mxGeometry>
        </mxCell>
        <mxCell id="lAf6Nf-l3kYEGOBf2khp-23" value="&lt;b&gt;sls_ord_num (COMP PK)&lt;/b&gt;&lt;div&gt;&lt;br&gt;&lt;/div&gt;" style="text;strokeColor=none;fillColor=none;align=left;verticalAlign=middle;spacingLeft=4;spacingRight=4;overflow=hidden;points=[[0,0.5],[1,0.5]];portConstraint=eastwest;rotatable=0;whiteSpace=wrap;html=1;" parent="lAf6Nf-l3kYEGOBf2khp-22" vertex="1">
          <mxGeometry y="30" width="170" height="30" as="geometry" />
        </mxCell>
        <mxCell id="lAf6Nf-l3kYEGOBf2khp-25" value="&lt;b&gt;sls_cust_id (COMP PK)&lt;/b&gt;" style="text;strokeColor=none;fillColor=none;align=left;verticalAlign=middle;spacingLeft=4;spacingRight=4;overflow=hidden;points=[[0,0.5],[1,0.5]];portConstraint=eastwest;rotatable=0;whiteSpace=wrap;html=1;" parent="lAf6Nf-l3kYEGOBf2khp-22" vertex="1">
          <mxGeometry y="60" width="170" height="30" as="geometry" />
        </mxCell>
        <mxCell id="lAf6Nf-l3kYEGOBf2khp-26" value="sls_prd_key" style="text;strokeColor=none;fillColor=none;align=left;verticalAlign=middle;spacingLeft=4;spacingRight=4;overflow=hidden;points=[[0,0.5],[1,0.5]];portConstraint=eastwest;rotatable=0;whiteSpace=wrap;html=1;" parent="lAf6Nf-l3kYEGOBf2khp-22" vertex="1">
          <mxGeometry y="90" width="170" height="30" as="geometry" />
        </mxCell>
        <mxCell id="lAf6Nf-l3kYEGOBf2khp-24" value="Transactional Records of &lt;br&gt;Sales &amp;amp; Orders" style="text;html=1;align=center;verticalAlign=middle;resizable=0;points=[];autosize=1;strokeColor=none;fillColor=none;" parent="lAf6Nf-l3kYEGOBf2khp-32" vertex="1">
          <mxGeometry x="5" width="160" height="40" as="geometry" />
        </mxCell>
        <mxCell id="lAf6Nf-l3kYEGOBf2khp-35" style="edgeStyle=orthogonalEdgeStyle;rounded=0;orthogonalLoop=1;jettySize=auto;html=1;entryX=0;entryY=0.5;entryDx=0;entryDy=0;" parent="1" source="lAf6Nf-l3kYEGOBf2khp-26" target="lAf6Nf-l3kYEGOBf2khp-55" edge="1">
          <mxGeometry relative="1" as="geometry" />
        </mxCell>
        <mxCell id="lAf6Nf-l3kYEGOBf2khp-39" value="" style="group" parent="1" vertex="1" connectable="0">
          <mxGeometry x="540" y="80" width="180" height="82" as="geometry" />
        </mxCell>
        <mxCell id="lAf6Nf-l3kYEGOBf2khp-40" value="erp_cust_az12" style="swimlane;fontStyle=0;childLayout=stackLayout;horizontal=1;startSize=30;horizontalStack=0;resizeParent=1;resizeParentMax=0;resizeLast=0;collapsible=1;marginBottom=0;whiteSpace=wrap;html=1;rounded=0;enumerate=0;fillColor=#fff2cc;strokeColor=#d6b656;" parent="lAf6Nf-l3kYEGOBf2khp-39" vertex="1">
          <mxGeometry y="22" width="170" height="60" as="geometry">
            <mxRectangle x="40" y="120" width="120" height="30" as="alternateBounds" />
          </mxGeometry>
        </mxCell>
        <mxCell id="lAf6Nf-l3kYEGOBf2khp-41" value="CID (PK?)&lt;div&gt;&lt;br&gt;&lt;/div&gt;" style="text;strokeColor=none;fillColor=none;align=left;verticalAlign=middle;spacingLeft=4;spacingRight=4;overflow=hidden;points=[[0,0.5],[1,0.5]];portConstraint=eastwest;rotatable=0;whiteSpace=wrap;html=1;" parent="lAf6Nf-l3kYEGOBf2khp-40" vertex="1">
          <mxGeometry y="30" width="170" height="30" as="geometry" />
        </mxCell>
        <mxCell id="lAf6Nf-l3kYEGOBf2khp-43" value="Extra Cust Info (Birthdate)" style="text;html=1;align=center;verticalAlign=middle;resizable=0;points=[];autosize=1;strokeColor=none;fillColor=none;" parent="lAf6Nf-l3kYEGOBf2khp-39" vertex="1">
          <mxGeometry x="5" width="160" height="30" as="geometry" />
        </mxCell>
        <mxCell id="lAf6Nf-l3kYEGOBf2khp-44" value="" style="group" parent="1" vertex="1" connectable="0">
          <mxGeometry x="570" y="250" width="180" height="82" as="geometry" />
        </mxCell>
        <mxCell id="lAf6Nf-l3kYEGOBf2khp-45" value="erp_loc_a101" style="swimlane;fontStyle=0;childLayout=stackLayout;horizontal=1;startSize=30;horizontalStack=0;resizeParent=1;resizeParentMax=0;resizeLast=0;collapsible=1;marginBottom=0;whiteSpace=wrap;html=1;rounded=0;enumerate=0;fillColor=#fff2cc;strokeColor=#d6b656;" parent="lAf6Nf-l3kYEGOBf2khp-44" vertex="1">
          <mxGeometry y="22" width="170" height="60" as="geometry">
            <mxRectangle x="40" y="120" width="120" height="30" as="alternateBounds" />
          </mxGeometry>
        </mxCell>
        <mxCell id="lAf6Nf-l3kYEGOBf2khp-46" value="CID- (PK?)&lt;div&gt;&lt;br&gt;&lt;/div&gt;" style="text;strokeColor=none;fillColor=none;align=left;verticalAlign=middle;spacingLeft=4;spacingRight=4;overflow=hidden;points=[[0,0.5],[1,0.5]];portConstraint=eastwest;rotatable=0;whiteSpace=wrap;html=1;" parent="lAf6Nf-l3kYEGOBf2khp-45" vertex="1">
          <mxGeometry y="30" width="170" height="30" as="geometry" />
        </mxCell>
        <mxCell id="lAf6Nf-l3kYEGOBf2khp-47" value="Customer Location (Country)" style="text;html=1;align=center;verticalAlign=middle;resizable=0;points=[];autosize=1;strokeColor=none;fillColor=none;" parent="lAf6Nf-l3kYEGOBf2khp-44" vertex="1">
          <mxGeometry x="-5" width="180" height="30" as="geometry" />
        </mxCell>
        <mxCell id="lAf6Nf-l3kYEGOBf2khp-48" value="" style="group" parent="1" vertex="1" connectable="0">
          <mxGeometry x="555" y="400" width="190" height="82" as="geometry" />
        </mxCell>
        <mxCell id="lAf6Nf-l3kYEGOBf2khp-49" value="erp_px_cat_g1v2" style="swimlane;fontStyle=0;childLayout=stackLayout;horizontal=1;startSize=30;horizontalStack=0;resizeParent=1;resizeParentMax=0;resizeLast=0;collapsible=1;marginBottom=0;whiteSpace=wrap;html=1;rounded=0;enumerate=0;fillColor=#fff2cc;strokeColor=#d6b656;" parent="lAf6Nf-l3kYEGOBf2khp-48" vertex="1">
          <mxGeometry y="22" width="170" height="60" as="geometry">
            <mxRectangle x="40" y="120" width="120" height="30" as="alternateBounds" />
          </mxGeometry>
        </mxCell>
        <mxCell id="lAf6Nf-l3kYEGOBf2khp-50" value="&lt;div&gt;ID (PK)&lt;/div&gt;" style="text;strokeColor=none;fillColor=none;align=left;verticalAlign=middle;spacingLeft=4;spacingRight=4;overflow=hidden;points=[[0,0.5],[1,0.5]];portConstraint=eastwest;rotatable=0;whiteSpace=wrap;html=1;" parent="lAf6Nf-l3kYEGOBf2khp-49" vertex="1">
          <mxGeometry y="30" width="170" height="30" as="geometry" />
        </mxCell>
        <mxCell id="lAf6Nf-l3kYEGOBf2khp-51" value="Product Maintenance Status" style="text;html=1;align=center;verticalAlign=middle;resizable=0;points=[];autosize=1;strokeColor=none;fillColor=none;" parent="lAf6Nf-l3kYEGOBf2khp-48" vertex="1">
          <mxGeometry width="170" height="30" as="geometry" />
        </mxCell>
        <mxCell id="lAf6Nf-l3kYEGOBf2khp-52" style="edgeStyle=orthogonalEdgeStyle;rounded=0;orthogonalLoop=1;jettySize=auto;html=1;" parent="1" source="lAf6Nf-l3kYEGOBf2khp-41" target="lAf6Nf-l3kYEGOBf2khp-54" edge="1">
          <mxGeometry relative="1" as="geometry" />
        </mxCell>
        <mxCell id="lAf6Nf-l3kYEGOBf2khp-53" style="edgeStyle=orthogonalEdgeStyle;rounded=0;orthogonalLoop=1;jettySize=auto;html=1;entryX=1;entryY=0.5;entryDx=0;entryDy=0;" parent="1" source="lAf6Nf-l3kYEGOBf2khp-46" target="lAf6Nf-l3kYEGOBf2khp-54" edge="1">
          <mxGeometry relative="1" as="geometry" />
        </mxCell>
        <mxCell id="lAf6Nf-l3kYEGOBf2khp-56" style="edgeStyle=orthogonalEdgeStyle;rounded=0;orthogonalLoop=1;jettySize=auto;html=1;" parent="1" source="lAf6Nf-l3kYEGOBf2khp-50" target="lAf6Nf-l3kYEGOBf2khp-55" edge="1">
          <mxGeometry relative="1" as="geometry" />
        </mxCell>
        <mxCell id="lAf6Nf-l3kYEGOBf2khp-58" value="&lt;font style=&quot;font-size: 30px;&quot;&gt;CRM&lt;/font&gt;" style="text;html=1;align=center;verticalAlign=middle;whiteSpace=wrap;rounded=0;fillColor=#dae8fc;strokeColor=#6c8ebf;" parent="1" vertex="1">
          <mxGeometry x="-40" y="30" width="90" height="30" as="geometry" />
        </mxCell>
        <mxCell id="lAf6Nf-l3kYEGOBf2khp-60" value="&lt;span style=&quot;font-size: 30px;&quot;&gt;ERP&lt;/span&gt;" style="text;html=1;align=center;verticalAlign=middle;whiteSpace=wrap;rounded=0;fillColor=#fff2cc;strokeColor=#d6b656;" parent="1" vertex="1">
          <mxGeometry x="600" y="30" width="90" height="30" as="geometry" />
        </mxCell>
        <mxCell id="cucA3h1q2ShHjCGtQ66Y-3" value="&lt;span style=&quot;font-size: 30px;&quot;&gt;Bronze&lt;/span&gt;" style="text;html=1;align=center;verticalAlign=middle;whiteSpace=wrap;rounded=0;fillColor=#ffe6cc;strokeColor=#D79B00;fontColor=#FFB570;" parent="1" vertex="1">
          <mxGeometry x="260" y="-50" width="120" height="30" as="geometry" />
        </mxCell>
        <mxCell id="SvudG5rJeDOU8BXn1gcV-1" value="&lt;span style=&quot;font-size: 20px;&quot;&gt;Product&lt;/span&gt;" style="text;html=1;strokeColor=#b85450;fillColor=#f8cecc;align=center;verticalAlign=middle;whiteSpace=wrap;overflow=hidden;" parent="1" vertex="1">
          <mxGeometry x="50" y="362" width="190" height="30" as="geometry" />
        </mxCell>
        <mxCell id="SvudG5rJeDOU8BXn1gcV-2" value="&lt;span style=&quot;font-size: 20px;&quot;&gt;Product&lt;/span&gt;" style="text;html=1;strokeColor=#b85450;fillColor=#f8cecc;align=center;verticalAlign=middle;whiteSpace=wrap;overflow=hidden;" parent="1" vertex="1">
          <mxGeometry x="550" y="482" width="190" height="30" as="geometry" />
        </mxCell>
        <mxCell id="SvudG5rJeDOU8BXn1gcV-4" value="&lt;span style=&quot;font-size: 20px;&quot;&gt;Customer&lt;/span&gt;" style="text;html=1;strokeColor=#b85450;fillColor=#f8cecc;align=center;verticalAlign=middle;whiteSpace=wrap;overflow=hidden;" parent="1" vertex="1">
          <mxGeometry x="565" y="332" width="190" height="30" as="geometry" />
        </mxCell>
        <mxCell id="SvudG5rJeDOU8BXn1gcV-5" value="&lt;span style=&quot;font-size: 20px;&quot;&gt;Customer&lt;/span&gt;" style="text;html=1;strokeColor=#b85450;fillColor=#f8cecc;align=center;verticalAlign=middle;whiteSpace=wrap;overflow=hidden;" parent="1" vertex="1">
          <mxGeometry x="540" y="162" width="190" height="30" as="geometry" />
        </mxCell>
        <mxCell id="SvudG5rJeDOU8BXn1gcV-6" value="&lt;span style=&quot;font-size: 20px;&quot;&gt;Customer&lt;/span&gt;" style="text;html=1;strokeColor=#b85450;fillColor=#f8cecc;align=center;verticalAlign=middle;whiteSpace=wrap;overflow=hidden;" parent="1" vertex="1">
          <mxGeometry x="50" y="210" width="190" height="30" as="geometry" />
        </mxCell>
        <mxCell id="SvudG5rJeDOU8BXn1gcV-7" value="&lt;span style=&quot;font-size: 20px;&quot;&gt;Sales transactions&lt;/span&gt;" style="text;html=1;strokeColor=#b85450;fillColor=#f8cecc;align=center;verticalAlign=middle;whiteSpace=wrap;overflow=hidden;" parent="1" vertex="1">
          <mxGeometry x="-220" y="296" width="190" height="30" as="geometry" />
        </mxCell>
        <mxCell id="SvudG5rJeDOU8BXn1gcV-10" value="Legend" style="shape=table;startSize=30;container=1;collapsible=0;childLayout=tableLayout;fontSize=16;align=left;verticalAlign=top;fillColor=none;strokeColor=none;fontColor=#4D4D4D;fontStyle=1;spacingLeft=6;spacing=0;resizable=0;" parent="1" vertex="1">
          <mxGeometry x="-540" y="15" width="200" height="195" as="geometry" />
        </mxCell>
        <mxCell id="SvudG5rJeDOU8BXn1gcV-11" value="" style="shape=tableRow;horizontal=0;startSize=0;swimlaneHead=0;swimlaneBody=0;strokeColor=inherit;top=0;left=0;bottom=0;right=0;collapsible=0;dropTarget=0;fillColor=none;points=[[0,0.5],[1,0.5]];portConstraint=eastwest;fontSize=12;spacingBottom=0;" parent="SvudG5rJeDOU8BXn1gcV-10" vertex="1">
          <mxGeometry y="30" width="200" height="45" as="geometry" />
        </mxCell>
        <mxCell id="SvudG5rJeDOU8BXn1gcV-12" value="Business Objects" style="shape=partialRectangle;html=1;whiteSpace=wrap;connectable=0;strokeColor=#b85450;overflow=hidden;fillColor=#f8cecc;top=0;left=0;bottom=0;right=0;pointerEvents=1;fontSize=20;align=left;spacingLeft=10;spacingRight=4;" parent="SvudG5rJeDOU8BXn1gcV-11" vertex="1">
          <mxGeometry width="200" height="45" as="geometry">
            <mxRectangle width="200" height="45" as="alternateBounds" />
          </mxGeometry>
        </mxCell>
        <mxCell id="SvudG5rJeDOU8BXn1gcV-13" value="" style="shape=tableRow;horizontal=0;startSize=0;swimlaneHead=0;swimlaneBody=0;strokeColor=inherit;top=0;left=0;bottom=0;right=0;collapsible=0;dropTarget=0;fillColor=none;points=[[0,0.5],[1,0.5]];portConstraint=eastwest;fontSize=12;" parent="SvudG5rJeDOU8BXn1gcV-10" vertex="1">
          <mxGeometry y="75" width="200" height="60" as="geometry" />
        </mxCell>
        <mxCell id="SvudG5rJeDOU8BXn1gcV-14" value="CRM Source Sys" style="shape=partialRectangle;html=1;whiteSpace=wrap;connectable=0;strokeColor=#6c8ebf;overflow=hidden;fillColor=#dae8fc;top=0;left=0;bottom=0;right=0;pointerEvents=1;fontSize=20;align=left;spacingLeft=10;spacingRight=4;spacingBottom=0;" parent="SvudG5rJeDOU8BXn1gcV-13" vertex="1">
          <mxGeometry width="200" height="60" as="geometry">
            <mxRectangle width="200" height="60" as="alternateBounds" />
          </mxGeometry>
        </mxCell>
        <mxCell id="SvudG5rJeDOU8BXn1gcV-15" value="" style="shape=tableRow;horizontal=0;startSize=0;swimlaneHead=0;swimlaneBody=0;strokeColor=inherit;top=0;left=0;bottom=0;right=0;collapsible=0;dropTarget=0;fillColor=none;points=[[0,0.5],[1,0.5]];portConstraint=eastwest;fontSize=12;" parent="SvudG5rJeDOU8BXn1gcV-10" vertex="1">
          <mxGeometry y="135" width="200" height="60" as="geometry" />
        </mxCell>
        <mxCell id="SvudG5rJeDOU8BXn1gcV-16" value="ERP source Sys" style="shape=partialRectangle;html=1;whiteSpace=wrap;connectable=0;strokeColor=#d6b656;overflow=hidden;fillColor=#fff2cc;top=0;left=0;bottom=0;right=0;pointerEvents=1;fontSize=20;align=left;spacingLeft=10;spacingRight=4;spacingBottom=0;" parent="SvudG5rJeDOU8BXn1gcV-15" vertex="1">
          <mxGeometry width="200" height="60" as="geometry">
            <mxRectangle width="200" height="60" as="alternateBounds" />
          </mxGeometry>
        </mxCell>
      </root>
    </mxGraphModel>
  </diagram>
</mxfile>
